<svg width="40" height="40" viewBox="0 0 40 40" xmlns="http://www.w3.org/2000/svg">
  <!-- Stylized Cross Icon -->
  <g transform="translate(5, 5)">
    <!-- Top link (purple/magenta) -->
    <path d="M10 0 C15 0, 20 5, 20 10 C20 15, 15 20, 10 20" 
          fill="#8B5CF6" 
          stroke="none"/>
    
    <!-- Bottom link (purple/magenta) -->
    <path d="M10 20 C15 20, 20 25, 20 30 C20 35, 15 40, 10 40" 
          fill="#8B5CF6" 
          stroke="none"/>
    
    <!-- Left link (deep blue) -->
    <path d="M0 10 C0 15, 5 20, 10 20 C15 20, 20 15, 20 10" 
          fill="#1E40AF" 
          stroke="none"/>
    
    <!-- Right link (deep blue) -->
    <path d="M20 10 C20 15, 25 20, 30 20 C35 20, 40 15, 40 10" 
          fill="#1E40AF" 
          stroke="none"/>
  </g>
</svg>
