<svg width="40" height="40" viewBox="0 0 40 40" xmlns="http://www.w3.org/2000/svg">
  <!-- Фон -->
  <rect width="40" height="40" fill="#000000"/>
  
  <!-- Символ (компактний) -->
  <g transform="translate(20, 20)">
    <!-- Сегмент 1 (верхній, рожевий) -->
    <path d="M-8,-8 Q-8,-12 -4,-12 Q0,-12 0,-8 Q0,-4 4,-4 Q8,-4 8,0 Q8,4 4,4 Q0,4 0,8 Q0,12 -4,12 Q-8,12 -8,8 Q-8,4 -12,4 Q-16,4 -16,0 Q-16,-4 -12,-4 Q-8,-4 -8,-8 Z" 
          fill="#FF1493" 
          stroke="none"/>
    
    <!-- Сегмент 2 (лівий, синій) -->
    <path d="M-12,-4 Q-16,-4 -16,0 Q-16,4 -12,4 Q-8,4 -8,8 Q-8,12 -4,12 Q0,12 0,8 Q0,4 4,4 Q8,4 8,0 Q8,-4 4,-4 Q0,-4 0,-8 Q0,-12 -4,-12 Q-8,-12 -8,-8 Q-8,-4 -12,-4 Z" 
          fill="#1E90FF" 
          stroke="none"/>
    
    <!-- Сегмент 3 (нижній, фіолетовий) -->
    <path d="M-4,8 Q-8,8 -8,4 Q-8,0 -12,0 Q-16,0 -16,-4 Q-16,-8 -12,-8 Q-8,-8 -8,-12 Q-8,-16 -4,-16 Q0,-16 0,-12 Q0,-8 4,-8 Q8,-8 8,-4 Q8,0 4,0 Q0,0 0,4 Q0,8 -4,8 Z" 
          fill="#8A2BE2" 
          stroke="none"/>
    
    <!-- Сегмент 4 (правий, індиго) -->
    <path d="M4,0 Q8,0 8,-4 Q8,-8 4,-8 Q0,-8 0,-12 Q0,-16 -4,-16 Q-8,-16 -8,-12 Q-8,-8 -12,-8 Q-16,-8 -16,-4 Q-16,0 -12,0 Q-8,0 -8,4 Q-8,8 -4,8 Q0,8 0,4 Q0,0 4,0 Z" 
          fill="#4B0082" 
          stroke="none"/>
  </g>
</svg>
